<?xml version="1.0" encoding="us-ascii" standalone="no"?>
<svg xmlns="http://www.w3.org/2000/svg" xmlns:xlink="http://www.w3.org/1999/xlink" contentStyleType="text/css"
     height="731.25px" preserveAspectRatio="none" style="width:478px;height:731px;" version="1.1" viewBox="0 0 478 731"
     width="478.125px" zoomAndPan="magnify">
    <defs>
        <linearGradient id="g155ykaeuo0vwq0" x1="50%" x2="50%" y1="0%" y2="100%">
            <stop offset="0%" stop-color="#7C9AB9"/>
            <stop offset="100%" stop-color="#304D6D"/>
        </linearGradient>
    </defs>
    <g>
        <line style="stroke:#999999;stroke-width:1.0416666666666667;stroke-dasharray:5.0,5.0;" x1="38.5417" x2="38.5417"
              y1="98.9258" y2="633.9193"/>
        <line style="stroke:#999999;stroke-width:1.0416666666666667;stroke-dasharray:5.0,5.0;" x1="204.1667"
              x2="204.1667" y1="98.9258" y2="633.9193"/>
        <line style="stroke:#999999;stroke-width:1.0416666666666667;stroke-dasharray:5.0,5.0;" x1="418.75" x2="418.75"
              y1="98.9258" y2="633.9193"/>
        <text fill="#FFFFFF" font-family="Verdana" font-size="12.5" lengthAdjust="spacing" textLength="30.2083"
              x="20.8333" y="90.7694">User
        </text>
        <ellipse cx="39.0625" cy="19.7917" fill="url(#g155ykaeuo0vwq0)" rx="8.3333" ry="8.3333"
                 style="stroke:#304D6D;stroke-width:1.0416666666666667;"/>
        <path d="M39.0625,28.125 L39.0625,56.25 M25.5208,36.4583 L52.6042,36.4583 M39.0625,56.25 L25.5208,71.875 M39.0625,56.25 L52.6042,71.875 "
              fill="none" style="stroke:#304D6D;stroke-width:1.0416666666666667;"/>
        <text fill="#FFFFFF" font-family="Verdana" font-size="12.5" lengthAdjust="spacing" textLength="30.2083"
              x="20.8333" y="649.6887">User
        </text>
        <ellipse cx="39.0625" cy="667.2201" fill="url(#g155ykaeuo0vwq0)" rx="8.3333" ry="8.3333"
                 style="stroke:#304D6D;stroke-width:1.0416666666666667;"/>
        <path d="M39.0625,675.5534 L39.0625,703.6784 M25.5208,683.8867 L52.6042,683.8867 M39.0625,703.6784 L25.5208,719.3034 M39.0625,703.6784 L52.6042,719.3034 "
              fill="none" style="stroke:#304D6D;stroke-width:1.0416666666666667;"/>
        <rect fill="url(#g155ykaeuo0vwq0)" height="39.5508" rx="4.1667" ry="4.1667"
              style="stroke:#304D6D;stroke-width:1.0416666666666667;" width="146.875" x="131.25" y="58.3333"/>
        <text fill="#FFFFFF" font-family="Verdana" font-size="12.5" lengthAdjust="spacing" textLength="121.875"
              x="143.75" y="82.4361">Personal Assistant
        </text>
        <rect fill="url(#g155ykaeuo0vwq0)" height="39.5508" rx="4.1667" ry="4.1667"
              style="stroke:#304D6D;stroke-width:1.0416666666666667;" width="146.875" x="131.25" y="632.8776"/>
        <text fill="#FFFFFF" font-family="Verdana" font-size="12.5" lengthAdjust="spacing" textLength="121.875"
              x="143.75" y="656.9804">Personal Assistant
        </text>
        <rect fill="url(#g155ykaeuo0vwq0)" height="39.5508" rx="4.1667" ry="4.1667"
              style="stroke:#304D6D;stroke-width:1.0416666666666667;" width="94.7917" x="371.875" y="58.3333"/>
        <text fill="#FFFFFF" font-family="Verdana" font-size="12.5" lengthAdjust="spacing" textLength="69.7917"
              x="384.375" y="82.4361">OpenAI API
        </text>
        <rect fill="url(#g155ykaeuo0vwq0)" height="39.5508" rx="4.1667" ry="4.1667"
              style="stroke:#304D6D;stroke-width:1.0416666666666667;" width="94.7917" x="371.875" y="632.8776"/>
        <text fill="#FFFFFF" font-family="Verdana" font-size="12.5" lengthAdjust="spacing" textLength="69.7917"
              x="384.375" y="656.9804">OpenAI API
        </text>
        <polygon fill="#446E9B" points="192.1875,136.3932,202.6042,140.5599,192.1875,144.7266,196.3542,140.5599"
                 style="stroke:#446E9B;stroke-width:1.0416666666666667;"/>
        <line style="stroke:#446E9B;stroke-width:3.125;" x1="39.0625" x2="198.4375" y1="140.5599" y2="140.5599"/>
        <text fill="#FFFFFF" font-family="Verdana" font-size="12.5" lengthAdjust="spacing" textLength="85.4167"
              x="51.5625" y="130.3202">Ask Question
        </text>
        <polygon fill="#446E9B" points="406.7708,175.944,417.1875,180.1107,406.7708,184.2773,410.9375,180.1107"
                 style="stroke:#446E9B;stroke-width:1.0416666666666667;"/>
        <line style="stroke:#446E9B;stroke-width:3.125;" x1="204.6875" x2="413.0208" y1="180.1107" y2="180.1107"/>
        <text fill="#FFFFFF" font-family="Verdana" font-size="12.5" lengthAdjust="spacing" textLength="75" x="217.1875"
              y="169.871">Send Query
        </text>
        <polygon fill="#446E9B" points="216.1458,215.4948,205.7292,219.6615,216.1458,223.8281,211.9792,219.6615"
                 style="stroke:#446E9B;stroke-width:1.0416666666666667;"/>
        <line style="stroke:#446E9B;stroke-width:3.125;" x1="209.8958" x2="418.2292" y1="219.6615" y2="219.6615"/>
        <text fill="#FFFFFF" font-family="Verdana" font-size="12.5" lengthAdjust="spacing" textLength="116.6667"
              x="227.6042" y="209.4218">Provide Response
        </text>
        <polygon fill="#446E9B" points="50.5208,255.0456,40.1042,259.2122,50.5208,263.3789,46.3542,259.2122"
                 style="stroke:#446E9B;stroke-width:1.0416666666666667;"/>
        <line style="stroke:#446E9B;stroke-width:3.125;" x1="44.2708" x2="203.6458" y1="259.2122" y2="259.2122"/>
        <text fill="#FFFFFF" font-family="Verdana" font-size="12.5" lengthAdjust="spacing" textLength="114.5833"
              x="61.9792" y="248.9726">Display Response
        </text>
        <polygon fill="#446E9B" points="192.1875,294.5964,202.6042,298.763,192.1875,302.9297,196.3542,298.763"
                 style="stroke:#446E9B;stroke-width:1.0416666666666667;"/>
        <line style="stroke:#446E9B;stroke-width:3.125;" x1="39.0625" x2="198.4375" y1="298.763" y2="298.763"/>
        <text fill="#FFFFFF" font-family="Verdana" font-size="12.5" lengthAdjust="spacing" textLength="120.8333"
              x="51.5625" y="288.5234">Save Conversation
        </text>
        <polygon fill="#446E9B" points="406.7708,334.1471,417.1875,338.3138,406.7708,342.4805,410.9375,338.3138"
                 style="stroke:#446E9B;stroke-width:1.0416666666666667;"/>
        <line style="stroke:#446E9B;stroke-width:3.125;" x1="204.6875" x2="413.0208" y1="338.3138" y2="338.3138"/>
        <text fill="#FFFFFF" font-family="Verdana" font-size="12.5" lengthAdjust="spacing" textLength="160.4167"
              x="217.1875" y="328.0741">Store Conversation Data
        </text>
        <polygon fill="#446E9B" points="192.1875,373.6979,202.6042,377.8646,192.1875,382.0313,196.3542,377.8646"
                 style="stroke:#446E9B;stroke-width:1.0416666666666667;"/>
        <line style="stroke:#446E9B;stroke-width:3.125;" x1="39.0625" x2="198.4375" y1="377.8646" y2="377.8646"/>
        <text fill="#FFFFFF" font-family="Verdana" font-size="12.5" lengthAdjust="spacing" textLength="102.0833"
              x="51.5625" y="367.6249">Add Embedding
        </text>
        <polygon fill="#446E9B" points="406.7708,413.2487,417.1875,417.4154,406.7708,421.582,410.9375,417.4154"
                 style="stroke:#446E9B;stroke-width:1.0416666666666667;"/>
        <line style="stroke:#446E9B;stroke-width:3.125;" x1="204.6875" x2="413.0208" y1="417.4154" y2="417.4154"/>
        <text fill="#FFFFFF" font-family="Verdana" font-size="12.5" lengthAdjust="spacing" textLength="145.8333"
              x="217.1875" y="407.1757">Send Embedding Data
        </text>
        <polygon fill="#446E9B" points="216.1458,452.7995,205.7292,456.9661,216.1458,461.1328,211.9792,456.9661"
                 style="stroke:#446E9B;stroke-width:1.0416666666666667;"/>
        <line style="stroke:#446E9B;stroke-width:3.125;" x1="209.8958" x2="418.2292" y1="456.9661" y2="456.9661"/>
        <text fill="#FFFFFF" font-family="Verdana" font-size="12.5" lengthAdjust="spacing" textLength="173.9583"
              x="227.6042" y="446.7265">Confirm Embedding Stored
        </text>
        <polygon fill="#446E9B" points="192.1875,492.3503,202.6042,496.5169,192.1875,500.6836,196.3542,496.5169"
                 style="stroke:#446E9B;stroke-width:1.0416666666666667;"/>
        <line style="stroke:#446E9B;stroke-width:3.125;" x1="39.0625" x2="198.4375" y1="496.5169" y2="496.5169"/>
        <text fill="#FFFFFF" font-family="Verdana" font-size="12.5" lengthAdjust="spacing" textLength="130.2083"
              x="51.5625" y="486.2773">Retrieve Embedding
        </text>
        <polygon fill="#446E9B" points="406.7708,531.901,417.1875,536.0677,406.7708,540.2344,410.9375,536.0677"
                 style="stroke:#446E9B;stroke-width:1.0416666666666667;"/>
        <line style="stroke:#446E9B;stroke-width:3.125;" x1="204.6875" x2="413.0208" y1="536.0677" y2="536.0677"/>
        <text fill="#FFFFFF" font-family="Verdana" font-size="12.5" lengthAdjust="spacing" textLength="166.6667"
              x="217.1875" y="525.828">Request Embedding Data
        </text>
        <polygon fill="#446E9B" points="216.1458,571.4518,205.7292,575.6185,216.1458,579.7852,211.9792,575.6185"
                 style="stroke:#446E9B;stroke-width:1.0416666666666667;"/>
        <line style="stroke:#446E9B;stroke-width:3.125;" x1="209.8958" x2="418.2292" y1="575.6185" y2="575.6185"/>
        <text fill="#FFFFFF" font-family="Verdana" font-size="12.5" lengthAdjust="spacing" textLength="160.4167"
              x="227.6042" y="565.3788">Provide Embedding Data
        </text>
        <polygon fill="#446E9B" points="50.5208,611.0026,40.1042,615.1693,50.5208,619.3359,46.3542,615.1693"
                 style="stroke:#446E9B;stroke-width:1.0416666666666667;"/>
        <line style="stroke:#446E9B;stroke-width:3.125;" x1="44.2708" x2="203.6458" y1="615.1693" y2="615.1693"/>
        <text fill="#FFFFFF" font-family="Verdana" font-size="12.5" lengthAdjust="spacing" textLength="122.9167"
              x="61.9792" y="604.9296">Display Embedding
        </text><!--SRC=[VP11Ri9034NtSmetUox0ebBKi63L4CG1JCO5YsHc60-Hk7sTj4b9G5sDzF-p_n-_fJEr11AmfWQF1kla8no4eWaO4zSSq2N8IehY7JQGYx0arJ90WJAVOv-1NBw5lDmEjhx6zCjWzQuih7Ny0hiRIMBlZ2ggAwJ6dfpjdNWtlJ3oPVGTMuAA97Wdz3ipx5n3mH8QlF-vyx0zTWGVtdLQ7fyJzQTp6mfCk2niBMpQ8rdBxlJSUB9-PX-hw-OlZkq3CYJQHK15AJ9fqTSf5LtxS_qNDDveWRoyrCHy0m00]-->
    </g>
</svg>