<svg id="visual" viewBox="0 0 1900 1440" width="1900" height="1440"><rect x="0" y="0" width="1900" height="1440"
                                                                          fill="#94f180"></rect><defs><linearGradient id="grad1_0" x1="24.2%" y1="0%" x2="100%" y2="100%"><stop offset="23.61111111111111%" stop-color="#c9e0f3" stop-opacity="1"></stop><stop offset="76.38888888888889%" stop-color="#c9e0f3" stop-opacity="1"></stop></linearGradient></defs><defs><linearGradient id="grad1_1" x1="24.2%" y1="0%" x2="100%" y2="100%"><stop offset="23.61111111111111%" stop-color="#c9e0f3" stop-opacity="1"></stop><stop offset="76.38888888888889%" stop-color="#87ebfc" stop-opacity="1"></stop></linearGradient></defs><defs><linearGradient id="grad1_2" x1="24.2%" y1="0%" x2="100%" y2="100%"><stop offset="23.61111111111111%" stop-color="#58f4d2" stop-opacity="1"></stop><stop offset="76.38888888888889%" stop-color="#87ebfc" stop-opacity="1"></stop></linearGradient></defs><defs><linearGradient id="grad1_3" x1="24.2%" y1="0%" x2="100%" y2="100%"><stop offset="23.61111111111111%" stop-color="#58f4d2" stop-opacity="1"></stop><stop offset="76.38888888888889%" stop-color="#94f180" stop-opacity="1"></stop></linearGradient></defs><defs><linearGradient id="grad2_0" x1="0%" y1="0%" x2="75.8%" y2="100%"><stop offset="23.61111111111111%" stop-color="#c9e0f3" stop-opacity="1"></stop><stop offset="76.38888888888889%" stop-color="#c9e0f3" stop-opacity="1"></stop></linearGradient></defs><defs><linearGradient id="grad2_1" x1="0%" y1="0%" x2="75.8%" y2="100%"><stop offset="23.61111111111111%" stop-color="#87ebfc" stop-opacity="1"></stop><stop offset="76.38888888888889%" stop-color="#c9e0f3" stop-opacity="1"></stop></linearGradient></defs><defs><linearGradient id="grad2_2" x1="0%" y1="0%" x2="75.8%" y2="100%"><stop offset="23.61111111111111%" stop-color="#87ebfc" stop-opacity="1"></stop><stop offset="76.38888888888889%" stop-color="#58f4d2" stop-opacity="1"></stop></linearGradient></defs><defs><linearGradient id="grad2_3" x1="0%" y1="0%" x2="75.8%" y2="100%"><stop offset="23.61111111111111%" stop-color="#94f180" stop-opacity="1"></stop><stop offset="76.38888888888889%" stop-color="#58f4d2" stop-opacity="1"></stop></linearGradient></defs><g transform="translate(1900, 0)"><path d="M0 953.6C-90 903.3 -180 852.9 -259.3 797.9C-338.5 742.9 -407.1 683.3 -447.3 615.7C-487.5 548 -499.3 472.4 -585.7 425.6C-672.2 378.8 -833.2 360.8 -906.9 294.7C-980.7 228.6 -967.2 114.3 -953.6 0L0 0Z" fill="#6ef4ad" style="transition: 0.4s cubic-bezier(0.16, 1, 0.3, 1);"></path><path d="M0 715.2C-67.5 677.5 -135 639.7 -194.4 598.5C-253.9 557.2 -305.3 512.5 -335.5 461.7C-365.6 411 -374.5 354.3 -439.3 319.2C-504.1 284.1 -624.9 270.6 -680.2 221C-735.5 171.4 -725.4 85.7 -715.2 0L0 0Z" fill="#64f1ed" style="transition: 0.4s cubic-bezier(0.16, 1, 0.3, 1);"></path><path d="M0 476.8C-45 451.6 -90 426.5 -129.6 399C-169.3 371.5 -203.6 341.7 -223.7 307.8C-243.7 274 -249.7 236.2 -292.9 212.8C-336.1 189.4 -416.6 180.4 -453.5 147.3C-490.3 114.3 -483.6 57.1 -476.8 0L0 0Z" fill="#ace5fd" style="transition: 0.4s cubic-bezier(0.16, 1, 0.3, 1);"></path><path d="M0 238.4C-22.5 225.8 -45 213.2 -64.8 199.5C-84.6 185.7 -101.8 170.8 -111.8 153.9C-121.9 137 -124.8 118.1 -146.4 106.4C-168 94.7 -208.3 90.2 -226.7 73.7C-245.2 57.1 -241.8 28.6 -238.4 0L0 0Z" fill="#c9e0f3" style="transition: 0.4s cubic-bezier(0.16, 1, 0.3, 1);"></path></g><g transform="translate(0, 1440)"><path d="M0 -953.6C117.1 -963.5 234.2 -973.4 291.4 -896.8C348.6 -820.3 346 -657.4 439.7 -605.1C533.3 -552.9 723.2 -611.3 771.5 -560.5C819.8 -509.8 726.5 -349.9 733.3 -238.3C740 -126.6 846.8 -63.3 953.6 0L0 0Z" fill="#6ef4ad" style="transition: 0.4s cubic-bezier(0.16, 1, 0.3, 1);"></path><path d="M0 -715.2C87.8 -722.6 175.6 -730 218.6 -672.6C261.5 -615.2 259.5 -493.1 329.7 -453.9C400 -414.7 542.4 -458.5 578.6 -420.4C614.8 -382.3 544.9 -262.4 549.9 -178.7C555 -95 635.1 -47.5 715.2 0L0 0Z" fill="#64f1ed" style="transition: 0.4s cubic-bezier(0.16, 1, 0.3, 1);"></path><path d="M0 -476.8C58.5 -481.7 117.1 -486.7 145.7 -448.4C174.3 -410.2 173 -328.7 219.8 -302.6C266.7 -276.4 361.6 -305.6 385.7 -280.3C409.9 -254.9 363.3 -174.9 366.6 -119.1C370 -63.3 423.4 -31.7 476.8 0L0 0Z" fill="#ace5fd" style="transition: 0.4s cubic-bezier(0.16, 1, 0.3, 1);"></path><path d="M0 -238.4C29.3 -240.9 58.5 -243.3 72.9 -224.2C87.2 -205.1 86.5 -164.4 109.9 -151.3C133.3 -138.2 180.8 -152.8 192.9 -140.1C204.9 -127.4 181.6 -87.5 183.3 -59.6C185 -31.7 211.7 -15.8 238.4 0L0 0Z" fill="#c9e0f3" style="transition: 0.4s cubic-bezier(0.16, 1, 0.3, 1);"></path></g></svg>