<?xml version="1.0" encoding="UTF-8" standalone="no"?>
<svg
        width="900px"
        height="900px"
        viewBox="0 0 900 900"
        version="1.1"
        xml:space="preserve"
        id="SVGRoot"
        xmlns="http://www.w3.org/2000/svg"
><defs
   id="defs5"><pattern
     patternUnits="userSpaceOnUse"
     width="481.89648"
     height="482"
     patternTransform="translate(95.571555,86.866992)"
     preserveAspectRatio="xMidYMid"
     id="pattern17"><path
       d="m 240.94726,1 a 239.94731,240 0 0 0 -239.94726,240 239.94731,240 0 0 0 239.94726,240 239.94731,240 0 0 0 239.94921,-240 239.94731,240 0 0 0 -239.94921,-240 z m 0,79.999998 a 159.96487,160 0 0 1 159.96484,160.000002 159.96487,160 0 0 1 -159.96484,160 159.96487,160 0 0 1 -159.964845,-160 159.96487,160 0 0 1 159.964845,-160.000002 z m 0,80.000002 a 79.982437,80 0 0 0 -79.98243,80 79.982437,80 0 0 0 79.98243,80 79.982437,80 0 0 0 79.98242,-80 79.982437,80 0 0 0 -79.98242,-80 z"
       id="path2"
       style="fill:#c8b7b7;fill-opacity:1;stroke:black;stroke-width:2"
       /></pattern><pattern
     patternUnits="userSpaceOnUse"
     width="804.82803"
     height="803.41462"
     patternTransform="translate(54.2257,47.101367)"
     preserveAspectRatio="xMidYMid"
     id="pattern18"><path
       d="m 802.41421,1 h -799.9999965 l 799.9999965,800 z m -400,0 h 399.99998 v 800 h -399.99998 v -400 z m -399.8243645,400 h 799.8243345 v 400 h -799.8243345 z m -1e-6,-399.999998 h 799.8243455 l -799.8243455,800.000028 z"
       id="path1"
       style="fill:none;stroke:black;stroke-width:2"
       /></pattern><filter
        style="color-interpolation-filters:sRGB;"
     id="filter19"
     x="-0.077035093"
     y="-0.077170615"
     width="1.1540702"
     height="1.1543412"><feSpecularLighting
       in="SourceAlpha"
       surfaceScale="1"
       specularConstant="2"
       specularExponent="18.5"
       id="feSpecularLighting18"><feDistantLight
         elevation="30"
         azimuth="225"
         id="feDistantLight18" /></feSpecularLighting><feComposite
       result="result0"
       operator="atop"
       in2="SourceGraphic"
       id="feComposite18" /><feMorphology
       radius="2"
       result="result1"
       in="SourceAlpha"
       operator="dilate"
       id="feMorphology18" /><feComposite
       in="result0"
       in2="result1"
       id="feComposite19"
       result="fbSourceGraphic" /><feColorMatrix
       result="fbSourceGraphicAlpha"
       in="fbSourceGraphic"
       values="0 0 0 -1 0 0 0 0 -1 0 0 0 0 -1 0 0 0 0 1 0"
       id="feColorMatrix19" /><feGaussianBlur
       id="feGaussianBlur19"
       result="result0"
       in="fbSourceGraphic"
       stdDeviation="0.5" /><feTurbulence
       id="feTurbulence19"
       baseFrequency="0.2"
       seed="300"
       numOctaves="10"
       result="result1"
       type="fractalNoise" /><feGaussianBlur
       id="feGaussianBlur20"
       stdDeviation="4"
       result="result8" /><feDisplacementMap
       id="feDisplacementMap20"
       result="result7"
       in2="result8"
       scale="5"
       in="fbSourceGraphic"
       xChannelSelector="R" /><feComposite
       id="feComposite20"
       result="result2"
       operator="in"
       in2="result1"
       in="result7" /><feComposite
       id="feComposite21"
       k3="3"
       in2="result2"
       in="result0"
       operator="arithmetic" /><feBlend
       id="feBlend21"
       result="fbSourceGraphic"
       mode="multiply"
       in2="result2" /><feColorMatrix
       id="feColorMatrix21"
       values="1 0 0 -1 0 1 0 1 -1 0 1 0 0 -1 0 -1.8 -0.5 0 5.7 -3.5 "
       in="fbSourceGraphic"
       result="fbSourceGraphicAlpha" /><feGaussianBlur
       id="feGaussianBlur21"
       stdDeviation="0.5"
       in="fbSourceGraphicAlpha"
       result="result0" /><feSpecularLighting
       id="feSpecularLighting21"
       result="result6"
       surfaceScale="-5"
       specularExponent="5"><feDistantLight
         id="feDistantLight21"
         azimuth="225"
         elevation="25" /></feSpecularLighting><feComposite
       id="feComposite22"
       in2="result6"
       in="fbSourceGraphic"
       result="result2"
       operator="in" /><feComposite
       id="feComposite23"
       in="result2"
       result="fbSourceGraphic"
       operator="arithmetic"
       k2="1"
       k3="1"
       in2="result2" /><feColorMatrix
       result="fbSourceGraphicAlpha"
       in="fbSourceGraphic"
       values="0 0 0 -1 0 0 0 0 -1 0 0 0 0 -1 0 0 0 0 1 0"
       id="feColorMatrix23" /><feGaussianBlur
       id="feGaussianBlur23"
       stdDeviation="5"
       in="fbSourceGraphicAlpha"
       result="result1" /><feComposite
       id="feComposite24"
       operator="arithmetic"
       k2="3.2"
       k1="-1"
       k4="-2"
       result="result3"
       in2="result1" /><feColorMatrix
       id="feColorMatrix24"
       values="1 0 0 0 0 0 1 0 0 0 0 0 1 0 0 0 0 0 10 0 "
       result="result2" /><feComposite
       id="feComposite25"
       result="fbSourceGraphic"
       in="fbSourceGraphic"
       operator="out"
       in2="result2" /><feBlend
       id="feBlend25"
       mode="multiply"
       in="result1"
       in2="fbSourceGraphic"
       result="result91" /><feBlend
       id="feBlend26"
       mode="screen"
       in="fbSourceGraphic"
       in2="result91"
       result="fbSourceGraphic" /><feColorMatrix
       result="fbSourceGraphicAlpha"
       in="fbSourceGraphic"
       values="0 0 0 -1 0 0 0 0 -1 0 0 0 0 -1 0 0 0 0 1 0"
       id="feColorMatrix26" /><feFlood
       id="feFlood26"
       result="result4"
       flood-color="rgb(253,112,174)"
       flood-opacity="1"
       in="fbSourceGraphic" /><feGaussianBlur
       id="feGaussianBlur26"
       result="result1"
       in="fbSourceGraphicAlpha"
       stdDeviation="15" /><feComposite
       id="feComposite26"
       in2="result4"
       in="result1"
       result="result3"
       k4="-2"
       k2="4"
       operator="arithmetic" /><feColorMatrix
       id="feColorMatrix27"
       result="result2"
       values="1 0 0 0 0 0 1 0 0 0 0 0 1 0 0 0 0 0 10 -3" /><feComposite
       id="feComposite27"
       operator="in"
       in="result4"
       result="fbSourceGraphic"
       in2="result2" /><feBlend
       id="feBlend27"
       in2="fbSourceGraphic"
       in="fbSourceGraphic"
       mode="normal"
       result="result5" /></filter></defs>
<svg
        id="named view1"
/>
<style
   type="text/css"
   id="style1">
g.prefab path {
  vector-effect:non-scaling-stroke;
  -inkscape-stroke:hairline;
  fill: none;
  fill-opacity: 1;
  stroke-opacity: 1;
  stroke: #00349c;
}
</style>

<g
        id="layer2"
><g
     id="layer6"
     ><path
       d="m 576.46803,87.866992 a 239.94731,240 0 0 0 -239.94921,239.999998 239.94731,240 0 0 0 239.94921,240 239.94731,240 0 0 0 239.94727,-240 239.94731,240 0 0 0 -239.94727,-239.999998 z m 0,79.999998 a 159.96487,160 0 0 1 159.96485,160 159.96487,160 0 0 1 -159.96485,160 159.96487,160 0 0 1 -159.96679,-160 159.96487,160 0 0 1 159.96679,-160 z m 0,80 a 79.982437,80 0 0 0 -79.98437,80 79.982437,80 0 0 0 79.98437,80 79.982437,80 0 0 0 79.98243,-80 79.982437,80 0 0 0 -79.98243,-80 z"
       id="path3"
       style="fill:gray;stroke:black;stroke-width:2"
       /><rect
       style="fill:#6f0;fill-opacity:1;stroke:#e5ff80;stroke-width:0.377953"
       id="rect15"
       width="221.11011"
       height="223.56688"
       x="56.600548"
       y="626.47864" /></g><path
     d="m 576.46803,327.86699 a 239.94731,240 0 0 0 -239.94921,240 239.94731,240 0 0 0 239.94921,240 239.94731,240 0 0 0 239.94727,-240 239.94731,240 0 0 0 -239.94727,-240 z m 0,80 a 159.96487,160 0 0 1 159.96485,160 159.96487,160 0 0 1 -159.96485,160 159.96487,160 0 0 1 -159.96679,-160 159.96487,160 0 0 1 159.96679,-160 z m 0,80 a 79.982437,80 0 0 0 -79.98437,80 79.982437,80 0 0 0 79.98437,80 79.982437,80 0 0 0 79.98243,-80 79.982437,80 0 0 0 -79.98243,-80 z"
     id="path5"
     style="fill:#ff2a2a;stroke:black;stroke-width:2" /><ellipse
     style="fill:#1a1a1a;fill-opacity:1;stroke:#e5ff80;stroke-width:0.377953"
     id="path17-5-8"
     cx="771.81958"
     cy="445.27087"
     rx="84.349411"
     ry="78.616928" /><ellipse
     style="fill:#6c6753;fill-opacity:1;stroke:#e5ff80;stroke-width:0.377953"
     id="path16"
     cx="458.18924"
     cy="471.29208"
     rx="181.39218"
     ry="177.29755" /></g><g
          id="layer5"
  ><path
     d="m 336.51882,327.86699 a 239.94731,240 0 0 0 -239.947265,240 239.94731,240 0 0 0 239.947265,240 239.94731,240 0 0 0 239.94921,-240 239.94731,240 0 0 0 -239.94921,-240 z m 0,80 a 159.96487,160 0 0 1 159.96484,160 159.96487,160 0 0 1 -159.96484,160 159.96487,160 0 0 1 -159.96485,-160 159.96487,160 0 0 1 159.96485,-160 z m 0,80 a 79.982437,80 0 0 0 -79.98243,80 79.982437,80 0 0 0 79.98243,80 79.982437,80 0 0 0 79.98242,-80 79.982437,80 0 0 0 -79.98242,-80 z"
     id="path4"
     style="fill:blue;stroke:black;stroke-width:2" /><rect
     style="fill:#d3bc5f;fill-opacity:1;stroke:#e5ff80;stroke-width:0.377953"
     id="rect13"
     width="221.11015"
     height="221.92902"
     x="57.686989"
     y="49.592354" /></g><g
          id="layer3"
  ><rect
     style="stroke:none;fill:url(#pattern17)"
     width="481.89648"
     height="482"
     x="95.571555"
     y="86.866992"
     id="rect17" /></g><g
          id="layer8"
  ><rect
     style="fill:#6c6753;fill-opacity:1;stroke:#e5ff80;stroke-width:0.377953"
     id="rect16"
     width="221.92903"
     height="226.84259"
     x="634.66791"
     y="621.56506" /></g><g
          id="layer4"
  ><ellipse
     style="fill:#f60;fill-opacity:1;stroke:#e5ff80;stroke-width:0.377953"
     id="path17"
     cx="140.03639"
     cy="439.76343"
     rx="84.349411"
     ry="78.616928" /><ellipse
     style="fill:#fea;fill-opacity:1;stroke:#e5ff80;stroke-width:0.377953"
     id="path17-5"
     cx="457.35187"
     cy="125.88962"
     rx="84.349411"
     ry="78.616928" /></g><g
          id="layer9"
  ><rect
     style="fill:#f60;fill-opacity:1;stroke:#e5ff80;stroke-width:0.377953"
     id="rect14"
     width="221.11011"
     height="218.65332"
     x="634.66791"
     y="50.77343" /></g><g
          id="layer7"
  ><ellipse
     style="fill:#aeceff;fill-opacity:1;stroke:#e5ff80;stroke-width:0.377953"
     id="path17-3"
     cx="456.53293"
     cy="770.38464"
     rx="84.349411"
     ry="78.616928" /><g
     id="g13" /><rect
     style="stroke:none;fill:url(#pattern18);filter:url(#filter19)"
     width="804.82803"
     height="803.41462"
     x="54.2257"
     y="47.101367"
     id="rect18" /></g></svg>
